<svg xmlns="http://www.w3.org/2000/svg" width="20" height="20" viewBox="0 0 30 36">
  <defs>
    <style>
      .cls-1 {
        fill: #fff;
        fill-rule: evenodd;
      }
    </style>
  </defs>
  <path class="cls-1" d="M242,2205.22v-0.41a2.117,2.117,0,0,0-2.116-2.11h-0.142a12.754,12.754,0,0,0-9.844-12.03v-1.55a2.119,2.119,0,0,0-2.115-2.12h-1.563a2.12,2.12,0,0,0-2.116,2.12v1.55a12.755,12.755,0,0,0-9.844,12.03h-0.142a2.117,2.117,0,0,0-2.116,2.11v0.41a2.113,2.113,0,0,0,1.891,2.1l-0.286,1.62a1.634,1.634,0,0,0,1.321,1.89l1.152,0.2a10.825,10.825,0,0,0,.269,1.54l-1.009.59a1.627,1.627,0,0,0-.6,2.22l1.373,2.38a1.631,1.631,0,0,0,.989.76,1.561,1.561,0,0,0,.428.05,1.649,1.649,0,0,0,.809-0.21l1.013-.59a10.944,10.944,0,0,0,1.2,1.01l-0.4,1.1a1.6,1.6,0,0,0,.055,1.24,1.573,1.573,0,0,0,.919.84l2.58,0.94a1.547,1.547,0,0,0,.555.1,1.631,1.631,0,0,0,1.533-1.07l0.4-1.1c0.261,0.02.523,0.03,0.783,0.03s0.523-.01.783-0.03l0.4,1.1a1.63,1.63,0,0,0,1.533,1.07,1.544,1.544,0,0,0,.555-0.1l2.58-.94a1.569,1.569,0,0,0,.918-0.84,1.609,1.609,0,0,0,.056-1.24l-0.4-1.1a11.049,11.049,0,0,0,1.2-1.01l1.012,0.59a1.653,1.653,0,0,0,.81.21,2.057,2.057,0,0,0,.427-0.05,1.628,1.628,0,0,0,.989-0.76l1.373-2.38a1.6,1.6,0,0,0,.162-1.23,1.634,1.634,0,0,0-.758-0.99l-1.011-.59a10.688,10.688,0,0,0,.27-1.54l1.152-.2a1.633,1.633,0,0,0,1.321-1.89l-0.285-1.62A2.114,2.114,0,0,0,242,2205.22Zm-17.135-16.1a1.351,1.351,0,0,1,1.355-1.35h1.562a1.351,1.351,0,0,1,1.355,1.35v1.4a12.764,12.764,0,0,0-4.272,0v-1.4h0Zm-0.762,2.33v3.71a0.381,0.381,0,0,0,.762,0v-3.87a12.1,12.1,0,0,1,4.271,0v3.87a0.381,0.381,0,0,0,.762,0v-3.71a12.01,12.01,0,0,1,9.081,11.25h-5.342v-5.8a0.381,0.381,0,0,0-.762,0v5.8h-11.75v-5.8a0.381,0.381,0,0,0-.761,0v5.8h-5.342A12.01,12.01,0,0,1,224.1,2191.45Zm14.792,18.63-1.438.25a0.067,0.067,0,0,1-.042.01,0.017,0.017,0,0,1-.018.01c-0.018.01-.034,0.01-0.051,0.02a0.016,0.016,0,0,1-.017.01l-0.041.03c-0.007.01-.013,0.01-0.019,0.02l-0.031.03c-0.007.01-.013,0.01-0.019,0.02a0.12,0.12,0,0,0-.023.04c0,0.01-.011.01-0.015,0.02a0.323,0.323,0,0,1-.016.04,0.176,0.176,0,0,0-.01.03,0.433,0.433,0,0,0-.008.05,0.142,0.142,0,0,0,0,.02,10.209,10.209,0,0,1-.346,1.98c0,0.01,0,.01,0,0.02a0.309,0.309,0,0,1-.007.04c0,0.02,0,.03,0,0.04s0,0.02,0,.04,0,0.02.007,0.03a0.138,0.138,0,0,0,.008.04,0.194,0.194,0,0,0,.013.03c0,0.01.009,0.03,0.014,0.04a0.261,0.261,0,0,0,.02.03c0.006,0.01.013,0.02,0.02,0.03l0.026,0.03a0.048,0.048,0,0,1,.025.02,0.06,0.06,0,0,0,.036.02c0.006,0.01.012,0.01,0.019,0.02l1.263,0.73a0.87,0.87,0,0,1,.317,1.18l-1.374,2.38a0.849,0.849,0,0,1-.525.4,0.887,0.887,0,0,1-.659-0.08l-1.265-.73a0.024,0.024,0,0,0-.023-0.01c-0.013-.01-0.025-0.01-0.038-0.02s-0.024-.01-0.036-0.01-0.024-.01-0.035-0.01h-0.111a0.05,0.05,0,0,0-.036.01,0.045,0.045,0,0,0-.034.01c-0.011,0-.023.01-0.036,0.01s-0.021.01-.032,0.02-0.021.01-.031,0.02l-0.032.03a0.02,0.02,0,0,0-.02.01,10.4,10.4,0,0,1-1.537,1.29c-0.007.01-.013,0.01-0.019,0.02s-0.022.01-.032,0.02-0.016.02-.024,0.03l-0.023.03a0.249,0.249,0,0,0-.019.03,0.228,0.228,0,0,0-.017.03,0.294,0.294,0,0,1-.012.04,0.176,0.176,0,0,0-.01.03c0,0.02,0,.03,0,0.04a0.175,0.175,0,0,0,0,.04c0,0.01,0,.02,0,0.03a0.262,0.262,0,0,0,0,.04c0,0.01.007,0.03,0.01,0.04a0.035,0.035,0,0,0,.006.02l0.5,1.38a0.852,0.852,0,0,1-.03.66,0.868,0.868,0,0,1-.487.45l-2.58.94a0.872,0.872,0,0,1-1.112-.52l-0.5-1.37c0-.01-0.009-0.02-0.014-0.03s-0.008-.02-0.014-0.03-0.016-.03-0.024-0.04-0.012-.01-0.018-0.02l-0.032-.03a0.036,0.036,0,0,0-.021-0.02l-0.036-.03c-0.009,0-.017-0.01-0.027-0.01s-0.024-.01-0.037-0.02-0.021-.01-0.032-0.01a0.059,0.059,0,0,1-.039-0.01h-0.1a11.211,11.211,0,0,1-2.007,0h-0.1a0.057,0.057,0,0,1-.039.01,0.041,0.041,0,0,1-.032.01c-0.012.01-.024,0.01-0.036,0.02a0.051,0.051,0,0,0-.029.02,0.054,0.054,0,0,0-.032.02c-0.009.01-.017,0.01-0.026,0.02s-0.019.02-.027,0.03l-0.023.03-0.02.03a0.238,0.238,0,0,0-.018.03l-0.012.03-0.5,1.37a0.872,0.872,0,0,1-1.112.52l-2.58-.94a0.87,0.87,0,0,1-.488-0.45,0.856,0.856,0,0,1-.03-0.66l0.5-1.37c0-.01,0-0.02.006-0.03s0.008-.03.011-0.04,0-.02,0-0.04,0-.02,0-0.03a0.175,0.175,0,0,0,0-.04c0-.01,0-0.02,0-0.04s-0.007-.02-0.01-0.03a0.268,0.268,0,0,1-.013-0.04c0-.01-0.01-0.02-0.016-0.03s-0.012-.02-0.019-0.03l-0.023-.03c-0.008-.01-0.015-0.02-0.024-0.03s-0.021-.01-0.032-0.02-0.012-.01-0.02-0.02a9.964,9.964,0,0,1-1.537-1.29c-0.005,0-.012-0.01-0.017-0.01l-0.036-.03c-0.008-.01-0.017-0.01-0.026-0.02s-0.025-.01-0.038-0.02-0.019-.01-0.029-0.01-0.027-.01-0.041-0.01-0.018-.01-0.027-0.01h-0.12c-0.008,0-.016.01-0.025,0.01s-0.03.01-.045,0.01-0.019.01-.028,0.01-0.021.01-.031,0.02l-1.265.73a0.885,0.885,0,0,1-.658.08,0.853,0.853,0,0,1-.527-0.4L215.4,2215a0.863,0.863,0,0,1,.318-1.18l1.262-.73c0.007-.01.013-0.01,0.02-0.02a0.055,0.055,0,0,0,.034-0.02,0.046,0.046,0,0,1,.026-0.02l0.025-.03,0.022-.03c0.006-.01.013-0.02,0.018-0.03s0.01-.03.015-0.04,0.009-.02.013-0.03a0.274,0.274,0,0,0,.008-0.04c0-.01,0-0.02.006-0.03s0-.03,0-0.04,0-.02,0-0.04,0-.02-0.007-0.04a0.146,0.146,0,0,0,0-.02,10.285,10.285,0,0,1-.346-1.98,0.138,0.138,0,0,1,0-.02c0-.02,0-0.03-0.009-0.05s-0.006-.02-0.009-0.03a0.216,0.216,0,0,1-.016-0.04,0.039,0.039,0,0,1-.016-0.02,0.41,0.41,0,0,0-.023-0.04c-0.006-.01-0.013-0.01-0.019-0.02s-0.02-.02-0.031-0.03-0.013-.01-0.02-0.02l-0.039-.03a0.026,0.026,0,0,1-.024-0.01c-0.014-.01-0.028-0.01-0.042-0.02a0.043,0.043,0,0,1-.033-0.01H216.5l-1.439-.26a0.832,0.832,0,0,1-.558-0.36,0.851,0.851,0,0,1-.145-0.64l0.307-1.75h6.46a6.349,6.349,0,1,0,11.709,0h6.459l0.307,1.75A0.86,0.86,0,0,1,238.894,2210.08Zm-17.5-.29a5.625,5.625,0,0,1,.569-2.46H232A5.586,5.586,0,1,1,221.39,2209.79Zm18.493-3.22H214.117a1.357,1.357,0,0,1-1.355-1.35v-0.41a1.351,1.351,0,0,1,1.355-1.35h25.766a1.351,1.351,0,0,1,1.355,1.35v0.41A1.358,1.358,0,0,1,239.883,2206.57Zm-15.4-8.36h5.034a0.38,0.38,0,1,0,0-.76h-5.034A0.38,0.38,0,1,0,224.483,2198.21Zm0,2.53h5.034a0.38,0.38,0,1,0,0-.76h-5.034A0.38,0.38,0,1,0,224.483,2200.74Z" transform="translate(-212 -2187)"/>
</svg>
