<svg xmlns="http://www.w3.org/2000/svg" width="20" height="20" viewBox="0 0 33 33" fill="red">
  <defs>
    <style>
      .cls-1 {
        fill: #fff;
        fill-rule: evenodd;
      }
    </style>
  </defs>
  <path class="cls-1" d="M215.491,2361.61a0.418,0.418,0,0,0-.413.42v0.98a0.413,0.413,0,1,0,.825,0v-0.98A0.418,0.418,0,0,0,215.491,2361.61Zm4.147,0a0.418,0.418,0,0,0-.412.42v0.98a0.413,0.413,0,1,0,.825,0v-0.98A0.418,0.418,0,0,0,219.638,2361.61Zm4.148,0a0.418,0.418,0,0,0-.412.42v0.98a0.413,0.413,0,1,0,.825,0v-0.98A0.418,0.418,0,0,0,223.786,2361.61Zm-8.295,4.05a0.409,0.409,0,0,0-.413.41v0.99a0.413,0.413,0,0,0,.825,0v-0.99A0.409,0.409,0,0,0,215.491,2365.66Zm4.147,0a0.409,0.409,0,0,0-.412.41v0.99a0.413,0.413,0,0,0,.825,0v-0.99A0.409,0.409,0,0,0,219.638,2365.66Zm4.148,0a0.409,0.409,0,0,0-.412.41v0.99a0.413,0.413,0,0,0,.825,0v-0.99A0.409,0.409,0,0,0,223.786,2365.66Zm-8.295,4.04a0.416,0.416,0,0,0-.413.41v0.99a0.413,0.413,0,0,0,.825,0v-0.99A0.416,0.416,0,0,0,215.491,2369.7Zm4.147,0a0.416,0.416,0,0,0-.412.41v0.99a0.413,0.413,0,0,0,.825,0v-0.99A0.416,0.416,0,0,0,219.638,2369.7Zm4.148,0a0.416,0.416,0,0,0-.412.41v0.99a0.413,0.413,0,0,0,.825,0v-0.99A0.416,0.416,0,0,0,223.786,2369.7Zm-8.295,4.04a0.418,0.418,0,0,0-.413.42v0.99a0.413,0.413,0,0,0,.825,0v-0.99A0.418,0.418,0,0,0,215.491,2373.74Zm4.147,0a0.418,0.418,0,0,0-.412.42v0.99a0.413,0.413,0,0,0,.825,0v-0.99A0.418,0.418,0,0,0,219.638,2373.74Zm4.148,0a0.418,0.418,0,0,0-.412.42v0.99a0.413,0.413,0,0,0,.825,0v-0.99A0.418,0.418,0,0,0,223.786,2373.74Zm-8.295,4.05a0.409,0.409,0,0,0-.413.41v0.99a0.413,0.413,0,0,0,.825,0v-0.99A0.409,0.409,0,0,0,215.491,2377.79Zm4.147,0a0.409,0.409,0,0,0-.412.41v0.99a0.413,0.413,0,0,0,.825,0v-0.99A0.409,0.409,0,0,0,219.638,2377.79Zm4.148,0a0.409,0.409,0,0,0-.412.41v0.99a0.413,0.413,0,0,0,.825,0v-0.99A0.409,0.409,0,0,0,223.786,2377.79Zm4.183-16.18a0.418,0.418,0,0,0-.412.42v0.98a0.413,0.413,0,1,0,.825,0v-0.98A0.418,0.418,0,0,0,227.969,2361.61Zm4.148,0a0.418,0.418,0,0,0-.413.42v0.98a0.413,0.413,0,1,0,.825,0v-0.98A0.417,0.417,0,0,0,232.117,2361.61Zm-4.148,4.05a0.409,0.409,0,0,0-.412.41v0.99a0.413,0.413,0,0,0,.825,0v-0.99A0.409,0.409,0,0,0,227.969,2365.66Zm4.148,0a0.409,0.409,0,0,0-.413.41v0.99a0.413,0.413,0,0,0,.825,0v-0.99A0.408,0.408,0,0,0,232.117,2365.66Zm-4.148,4.04a0.416,0.416,0,0,0-.412.41v0.99a0.413,0.413,0,0,0,.825,0v-0.99A0.416,0.416,0,0,0,227.969,2369.7Zm4.148,0a0.416,0.416,0,0,0-.413.41v0.99a0.413,0.413,0,0,0,.825,0v-0.99A0.415,0.415,0,0,0,232.117,2369.7Zm-4.148,4.04a0.418,0.418,0,0,0-.412.42v0.99a0.413,0.413,0,0,0,.825,0v-0.99A0.418,0.418,0,0,0,227.969,2373.74Zm4.148,0a0.418,0.418,0,0,0-.413.42v0.99a0.413,0.413,0,0,0,.825,0v-0.99A0.417,0.417,0,0,0,232.117,2373.74Zm-4.148,4.05a0.409,0.409,0,0,0-.412.41v0.99a0.413,0.413,0,0,0,.825,0v-0.99A0.409,0.409,0,0,0,227.969,2377.79Zm4.148,0a0.409,0.409,0,0,0-.413.41v0.99a0.413,0.413,0,0,0,.825,0v-0.99A0.408,0.408,0,0,0,232.117,2377.79Zm-21.7,4.21h32.175a0.415,0.415,0,0,0,0-.83h-1.538L240,2349.4a0.415,0.415,0,0,0-.412-0.4h-3.9a0.415,0.415,0,0,0-.412.4l-0.341,10.28-7.465-5.74a0.4,0.4,0,0,0-.433-0.05,0.421,0.421,0,0,0-.23.37v4.16l-0.017.53-6.779-5.02a0.4,0.4,0,0,0-.431-0.03,0.407,0.407,0,0,0-.227.36v4.67l-6.753-5a0.4,0.4,0,0,0-.431-0.03,0.407,0.407,0,0,0-.227.36v26.91h-1.531A0.415,0.415,0,0,0,210.412,2382Zm25.676-32.18h3.1l1.035,31.35H235.05Zm-23.32,5.26,6.754,5a0.41,0.41,0,0,0,.658-0.33v-4.67l6.753,5a0.412,0.412,0,0,0,.658-0.32l0.042-1.32v-3.34l7.27,5.59-0.678,20.48H212.768v-26.09Z" transform="translate(-210 -2349)"/>
</svg>
