<svg xmlns="http://www.w3.org/2000/svg" width="20" height="20" viewBox="0 0 33 30">
  <defs>
    <style>
      .cls-1 {
        fill: #fff;
        fill-rule: evenodd;
      }
    </style>
  </defs>
  <path class="cls-1" d="M225.968,2108.53v28.94c0.177-.17.354-0.35,0.532-0.53H210.532c0.178,0.18.355,0.36,0.532,0.53v-28.94c-0.177.17-.354,0.35-0.532,0.52H226.5a0.525,0.525,0,1,0,0-1.05H210.532a0.535,0.535,0,0,0-.532.53v28.94a0.535,0.535,0,0,0,.532.53H226.5a0.535,0.535,0,0,0,.532-0.53v-28.94A0.532,0.532,0,0,0,225.968,2108.53Zm-9.541,16.43v-3.44a0.532,0.532,0,0,0-1.064,0v3.44a0.532,0.532,0,0,0,1.064,0h0Zm5.242,0v-3.44a0.532,0.532,0,0,0-1.064,0v3.44a0.532,0.532,0,0,0,1.064,0h0Zm-5.242-8.16v-3.44a0.532,0.532,0,0,0-1.064,0v3.44a0.532,0.532,0,0,0,1.064,0h0Zm5.242,0v-3.44a0.532,0.532,0,0,0-1.064,0v3.44a0.532,0.532,0,0,0,1.064,0h0Zm20.266,0.12v20.55c0.178-.17.355-0.35,0.533-0.53H226.5c0.177,0.18.355,0.36,0.532,0.53v-20.55c-0.177.18-.355,0.35-0.532,0.53h15.968a0.53,0.53,0,1,0,0-1.06H226.5a0.535,0.535,0,0,0-.532.53v20.55a0.535,0.535,0,0,0,.532.53h15.968a0.535,0.535,0,0,0,.532-0.53v-20.55A0.533,0.533,0,0,0,241.935,2116.92Zm-9.54,8.04v-3.44a0.533,0.533,0,0,0-1.065,0v3.44a0.533,0.533,0,0,0,1.065,0h0Zm5.242,0v-3.44a0.533,0.533,0,0,0-1.065,0v3.44a0.533,0.533,0,0,0,1.065,0h0Zm-16.409,11.98h-5.4c0.178,0.18.355,0.36,0.533,0.53v-7.71c-0.178.17-.355,0.35-0.533,0.52h5.4c-0.178-.17-0.355-0.35-0.533-0.52v7.71a0.533,0.533,0,0,0,1.065,0v-7.71a0.535,0.535,0,0,0-.532-0.53h-5.4a0.535,0.535,0,0,0-.532.53v7.71a0.535,0.535,0,0,0,.532.53h5.4A0.53,0.53,0,1,0,221.228,2136.94Zm15.927,0h-5.4c0.177,0.18.355,0.36,0.532,0.53v-7.71c-0.177.17-.355,0.35-0.532,0.52h5.4c-0.177-.17-0.355-0.35-0.532-0.52v7.71a0.532,0.532,0,0,0,1.064,0v-7.71a0.535,0.535,0,0,0-.532-0.53h-5.4a0.535,0.535,0,0,0-.532.53v7.71a0.535,0.535,0,0,0,.532.53h5.4A0.53,0.53,0,1,0,237.155,2136.94Z" transform="translate(-210 -2108)"/>
</svg>
