<svg xmlns="http://www.w3.org/2000/svg" width="20" height="20" viewBox="0 0 31 29">
  <defs>
    <style>
      .cls-1 {
        fill: #fff;
        fill-rule: evenodd;
      }
    </style>
  </defs>
  <path class="cls-1" d="M241.935,2056.2l-10.865-27.85a0.516,0.516,0,0,0-.489-0.34h-2.723a0.533,0.533,0,0,0-.528.54v2.25h-1.663v-2.25a0.533,0.533,0,0,0-.528-0.54h-2.723a0.523,0.523,0,0,0-.489.34l-10.884,27.9a0.555,0.555,0,0,0,.051.51,0.525,0.525,0,0,0,.438.24h13.607a0.541,0.541,0,0,0,.528-0.55v-6.43h1.663v6.43a0.533,0.533,0,0,0,.528.54h13.611a0.533,0.533,0,0,0,.528-0.54A0.526,0.526,0,0,0,241.935,2056.2Zm-13.549-.29v-6.43a0.533,0.533,0,0,0-.528-0.54h-2.719a0.536,0.536,0,0,0-.532.54v6.43H212.313l10.463-26.82h1.831v2.25a0.536,0.536,0,0,0,.532.54h2.719a0.533,0.533,0,0,0,.528-0.54v-2.25h1.835l10.464,26.82h-12.3Zm-0.528-15.35h-2.719a0.545,0.545,0,0,0-.532.55v5.58a0.536,0.536,0,0,0,.532.54h2.719a0.533,0.533,0,0,0,.528-0.54v-5.58A0.541,0.541,0,0,0,227.858,2040.56Zm-0.528,5.58h-1.663v-4.49h1.663v4.49Zm0.528-12.55h-2.719a0.536,0.536,0,0,0-.532.54v4.19a0.536,0.536,0,0,0,.532.54h2.719a0.533,0.533,0,0,0,.528-0.54v-4.19A0.533,0.533,0,0,0,227.858,2033.59Zm-0.528,4.18h-1.663v-3.1h1.663v3.1Zm13.653,9.14a0.533,0.533,0,0,0,.482.32,0.573,0.573,0,0,0,.221-0.05,0.549,0.549,0,0,0,.259-0.72l-8.165-18.14a0.517,0.517,0,0,0-.7-0.26,0.544,0.544,0,0,0-.259.72Zm-29.671.27a0.573,0.573,0,0,0,.22.05,0.526,0.526,0,0,0,.48-0.32l8.165-18.13a0.544,0.544,0,0,0-.26-0.72,0.521,0.521,0,0,0-.7.26l-8.161,18.14A0.549,0.549,0,0,0,211.312,2047.18Z" transform="translate(-211 -2028)"/>
</svg>
