<svg xmlns="http://www.w3.org/2000/svg" width="20" height="20" viewBox="0 0 32 32">
  <defs>
    <style>
      .cls-1 {
        fill: #fff;
        fill-rule: evenodd;
      }
    </style>
  </defs>
  <path class="cls-1" d="M241.405,2273.07H234.37a1.594,1.594,0,0,0-1.5-1.07H221.13a1.594,1.594,0,0,0-1.5,1.07h-7.035a1.69,1.69,0,0,0-1.6,1.77v4.98a1.7,1.7,0,0,0,1.6,1.78h7.035a1.607,1.607,0,0,0,1.5,1.07v9.6a1.61,1.61,0,0,0,1.6,1.6v8.53a1.6,1.6,0,0,0,1.6,1.6h5.336a1.6,1.6,0,0,0,1.6-1.6v-8.53a1.61,1.61,0,0,0,1.6-1.6v-9.6a1.607,1.607,0,0,0,1.5-1.07h7.035a1.7,1.7,0,0,0,1.6-1.78v-4.98A1.69,1.69,0,0,0,241.405,2273.07Zm-29.345,6.75v-4.98a0.653,0.653,0,0,1,.533-0.71h6.936v6.4h-6.936A0.646,0.646,0,0,1,212.06,2279.82Zm18.14,22.58a0.533,0.533,0,0,1-.533.53h-5.336a0.533,0.533,0,0,1-.533-0.53v-8.53h6.4v8.53Zm1.067-9.6h-8.536a0.534,0.534,0,0,1-.534-0.53v-9.88l1.969-1.56a3.737,3.737,0,0,0,5.666,0l1.969,1.56v9.88a0.534,0.534,0,0,1-.534.53h0ZM227,2281.07a2.67,2.67,0,1,1,2.668-2.67A2.672,2.672,0,0,1,227,2281.07Zm5.869,0.53h-0.347l-2.114-1.68a3.735,3.735,0,1,0-6.816,0l-2.114,1.68H221.13a0.533,0.533,0,0,1-.533-0.53v-7.47a0.527,0.527,0,0,1,.533-0.53h11.738a0.527,0.527,0,0,1,.533.53v7.47A0.533,0.533,0,0,1,232.868,2281.6Zm9.07-1.78a0.646,0.646,0,0,1-.533.71h-6.936v-6.4h6.936a0.653,0.653,0,0,1,.533.71v4.98ZM227,2276.8a1.6,1.6,0,1,0,1.6,1.6,1.6,1.6,0,0,0-1.6-1.6h0Zm0,2.13a0.534,0.534,0,0,1-.534-0.53,0.534,0.534,0,0,1,1.068,0A0.534,0.534,0,0,1,227,2278.93Zm0,5.34a3.73,3.73,0,1,0,3.735,3.73,3.732,3.732,0,0,0-3.735-3.73h0Zm0,6.4a2.67,2.67,0,1,1,2.668-2.67A2.672,2.672,0,0,1,227,2290.67Zm0-4.27a1.6,1.6,0,1,0,1.6,1.6,1.6,1.6,0,0,0-1.6-1.6h0Zm0,2.13a0.534,0.534,0,0,1-.534-0.53,0.534,0.534,0,0,1,1.068,0,0.534,0.534,0,0,1-.534.53h0Z" transform="translate(-211 -2272)"/>
</svg>
